<svg width="72" height="72" viewBox="0 0 72 72" fill="none" xmlns="http://www.w3.org/2000/svg">
<rect width="72" height="72" rx="36" fill="#FFF9ED"/>
<g clip-path="url(#clip0_2_781)">
<path d="M48.5201 44.78H23.4801C22.8201 44.78 22.2401 44.34 22.0601 43.68C21.8601 43.02 22.1201 42.32 22.6601 41.94C22.6601 41.94 26.1601 39.22 26.1601 30.22C26.1801 24.58 30.5801 20 36.0001 20C41.4201 20 45.8401 24.58 45.8401 30.22C45.8401 39.22 49.3401 41.92 49.3601 41.96C49.8801 42.36 50.1201 43.06 49.9201 43.7C49.7201 44.34 49.1601 44.78 48.5201 44.78ZM36.0001 52C35.2801 52 34.5401 51.8 33.8601 51.4C33.2201 51 32.6801 50.46 32.3001 49.78C32.1027 49.4244 32.0486 49.0069 32.149 48.6127C32.2494 48.2186 32.4966 47.8778 32.8401 47.66C33.5401 47.22 34.4601 47.48 34.8801 48.22C35.0001 48.42 35.1601 48.58 35.3601 48.7C35.9801 49.06 36.7601 48.86 37.1201 48.22C37.5401 47.48 38.4401 47.22 39.1601 47.66C39.8801 48.08 40.1201 49.04 39.7001 49.78C38.9201 51.2 37.4801 52 36.0001 52Z" fill="#FFBB1F"/>
</g>
<defs>
<clipPath id="clip0_2_781">
<rect width="32" height="32" fill="white" transform="translate(20 20)"/>
</clipPath>
</defs>
</svg>
