<svg width="72" height="72" viewBox="0 0 72 72" fill="none" xmlns="http://www.w3.org/2000/svg">
<rect width="72" height="72" rx="36" fill="#E6F3E9"/>
<g clip-path="url(#clip0_2_768)">
<path d="M38 28.5V20H25.5C25.3029 19.9995 25.1076 20.0379 24.9254 20.1131C24.7431 20.1883 24.5776 20.2988 24.4382 20.4382C24.2988 20.5776 24.1883 20.7431 24.1131 20.9254C24.0379 21.1076 23.9995 21.3029 24 21.5V50.5C24 51.332 24.668 52 25.5 52H46.5C47.332 52 48 51.332 48 50.5V30H39.5C39.1025 29.999 38.7216 29.8406 38.4405 29.5595C38.1594 29.2784 38.0011 28.8975 38 28.5ZM42 43.25C41.9995 43.4488 41.9203 43.6392 41.7798 43.7798C41.6392 43.9203 41.4488 43.9995 41.25 44H30.75C30.5513 43.9995 30.3608 43.9203 30.2203 43.7798C30.0797 43.6392 30.0005 43.4488 30 43.25V42.75C30 42.338 30.338 42 30.75 42H41.25C41.662 42 42 42.338 42 42.75V43.25ZM42 39.25C41.9995 39.4488 41.9203 39.6392 41.7798 39.7798C41.6392 39.9203 41.4488 39.9995 41.25 40H30.75C30.5513 39.9995 30.3608 39.9203 30.2203 39.7798C30.0797 39.6392 30.0005 39.4488 30 39.25V38.75C30 38.338 30.338 38 30.75 38H41.25C41.662 38 42 38.338 42 38.75V39.25ZM42 34.75V35.25C41.9995 35.4488 41.9203 35.6392 41.7798 35.7798C41.6392 35.9203 41.4488 35.9995 41.25 36H30.75C30.5513 35.9995 30.3608 35.9203 30.2203 35.7798C30.0797 35.6392 30.0005 35.4488 30 35.25V34.75C30 34.338 30.338 34 30.75 34H41.25C41.662 34 42 34.338 42 34.75ZM48 27.618V28H40V20H40.38C40.78 20 41.162 20.156 41.444 20.438L47.564 26.562C47.844 26.842 48 27.224 48 27.618Z" fill="#3EC963"/>
</g>
<defs>
<clipPath id="clip0_2_768">
<rect width="32" height="32" fill="white" transform="translate(20 20)"/>
</clipPath>
</defs>
</svg>
