<svg width="201" height="30" viewBox="0 0 201 30" fill="none" xmlns="http://www.w3.org/2000/svg">
<mask id="path-1-outside-1_2_939" maskUnits="userSpaceOnUse" x="0.144043" y="0" width="201" height="30" fill="black">
<rect fill="white" x="0.144043" width="201" height="30"/>
<path d="M6.46404 2.596V29.12H1.14404V2.596H6.46404Z"/>
<path d="M21.4862 7.764C23.9942 7.764 26.0209 8.562 27.5662 10.158C29.1115 11.7287 29.8842 13.9327 29.8842 16.77V29.12H24.5642V17.492C24.5642 15.82 24.1462 14.5407 23.3102 13.654C22.4742 12.742 21.3342 12.286 19.8902 12.286C18.4209 12.286 17.2556 12.742 16.3942 13.654C15.5582 14.5407 15.1402 15.82 15.1402 17.492V29.12H9.82022V8.068H15.1402V10.69C15.8495 9.778 16.7489 9.06867 17.8382 8.562C18.9529 8.03 20.1689 7.764 21.4862 7.764Z"/>
<path d="M39.2373 12.438V22.622C39.2373 23.3313 39.4019 23.8507 39.7313 24.18C40.0859 24.484 40.6686 24.636 41.4793 24.636H43.9493V29.12H40.6053C36.1213 29.12 33.8793 26.9413 33.8793 22.584V12.438H31.3713V8.068H33.8793V2.862H39.2373V8.068H43.9493V12.438H39.2373Z"/>
<path d="M65.4457 18.138C65.4457 18.898 65.395 19.582 65.2937 20.19H49.9037C50.0303 21.71 50.5623 22.9007 51.4997 23.762C52.437 24.6233 53.5897 25.054 54.9577 25.054C56.9337 25.054 58.3397 24.2053 59.1757 22.508H64.9137C64.3057 24.5347 63.1404 26.2067 61.4177 27.524C59.695 28.816 57.5797 29.462 55.0717 29.462C53.045 29.462 51.221 29.0187 49.5997 28.132C48.0037 27.22 46.7497 25.9407 45.8377 24.294C44.951 22.6473 44.5077 20.7473 44.5077 18.594C44.5077 16.4153 44.951 14.5027 45.8377 12.856C46.7243 11.2093 47.9657 9.94267 49.5617 9.056C51.1577 8.16933 52.9943 7.726 55.0717 7.726C57.073 7.726 58.859 8.15667 60.4297 9.018C62.0257 9.87933 63.2544 11.108 64.1157 12.704C65.0024 14.2747 65.4457 16.086 65.4457 18.138ZM59.9357 16.618C59.9103 15.25 59.4163 14.1607 58.4537 13.35C57.491 12.514 56.313 12.096 54.9197 12.096C53.6023 12.096 52.4877 12.5013 51.5757 13.312C50.689 14.0973 50.1443 15.1993 49.9417 16.618H59.9357Z"/>
<path d="M72.7488 11.336C73.4328 10.2213 74.3195 9.34733 75.4088 8.714C76.5235 8.08067 77.7901 7.764 79.2088 7.764V13.35H77.8028C76.1308 13.35 74.8641 13.7427 74.0028 14.528C73.1668 15.3133 72.7488 16.6813 72.7488 18.632V29.12H67.4288V8.068H72.7488V11.336Z"/>
<path d="M92.5581 7.764C95.0661 7.764 97.0928 8.562 98.6381 10.158C100.183 11.7287 100.956 13.9327 100.956 16.77V29.12H95.6361V17.492C95.6361 15.82 95.2181 14.5407 94.3821 13.654C93.5461 12.742 92.4061 12.286 90.9621 12.286C89.4928 12.286 88.3274 12.742 87.4661 13.654C86.6301 14.5407 86.2121 15.82 86.2121 17.492V29.12H80.8921V8.068H86.2121V10.69C86.9214 9.778 87.8208 9.06867 88.9101 8.562C90.0248 8.03 91.2408 7.764 92.5581 7.764Z"/>
<path d="M112.171 29.462C110.448 29.462 108.903 29.158 107.535 28.55C106.167 27.9167 105.078 27.068 104.267 26.004C103.482 24.94 103.051 23.762 102.975 22.47H108.333C108.434 23.2807 108.827 23.952 109.511 24.484C110.22 25.016 111.094 25.282 112.133 25.282C113.146 25.282 113.932 25.0793 114.489 24.674C115.072 24.2687 115.363 23.7493 115.363 23.116C115.363 22.432 115.008 21.9253 114.299 21.596C113.615 21.2413 112.513 20.8613 110.993 20.456C109.422 20.076 108.13 19.6833 107.117 19.278C106.129 18.8727 105.268 18.252 104.533 17.416C103.824 16.58 103.469 15.4527 103.469 14.034C103.469 12.8687 103.798 11.8047 104.457 10.842C105.141 9.87933 106.104 9.11933 107.345 8.562C108.612 8.00467 110.094 7.726 111.791 7.726C114.299 7.726 116.3 8.35933 117.795 9.626C119.29 10.8673 120.113 12.552 120.265 14.68H115.173C115.097 13.844 114.742 13.1853 114.109 12.704C113.501 12.1973 112.678 11.944 111.639 11.944C110.676 11.944 109.929 12.1213 109.397 12.476C108.89 12.8307 108.637 13.3247 108.637 13.958C108.637 14.6673 108.992 15.212 109.701 15.592C110.41 15.9467 111.512 16.314 113.007 16.694C114.527 17.074 115.781 17.4667 116.769 17.872C117.757 18.2773 118.606 18.9107 119.315 19.772C120.05 20.608 120.43 21.7227 120.455 23.116C120.455 24.332 120.113 25.4213 119.429 26.384C118.77 27.3467 117.808 28.1067 116.541 28.664C115.3 29.196 113.843 29.462 112.171 29.462Z"/>
<path d="M152.079 2.596V29.12H146.759V17.834H135.397V29.12H130.077V2.596H135.397V13.502H146.759V2.596H152.079Z"/>
<path d="M175.289 8.068V29.12H169.931V26.46C169.247 27.372 168.348 28.094 167.233 28.626C166.144 29.1327 164.953 29.386 163.661 29.386C162.014 29.386 160.558 29.044 159.291 28.36C158.024 27.6507 157.024 26.6247 156.289 25.282C155.58 23.914 155.225 22.2927 155.225 20.418V8.068H160.545V19.658C160.545 21.33 160.963 22.622 161.799 23.534C162.635 24.4207 163.775 24.864 165.219 24.864C166.688 24.864 167.841 24.4207 168.677 23.534C169.513 22.622 169.931 21.33 169.931 19.658V8.068H175.289Z"/>
<path d="M183.958 11.146C184.642 10.1327 185.58 9.30933 186.77 8.676C187.986 8.04267 189.367 7.726 190.912 7.726C192.711 7.726 194.332 8.16933 195.776 9.056C197.246 9.94267 198.398 11.2093 199.234 12.856C200.096 14.4773 200.526 16.3647 200.526 18.518C200.526 20.6713 200.096 22.584 199.234 24.256C198.398 25.9027 197.246 27.182 195.776 28.094C194.332 29.006 192.711 29.462 190.912 29.462C189.342 29.462 187.961 29.158 186.77 28.55C185.605 27.9167 184.668 27.106 183.958 26.118V29.12H178.638V1H183.958V11.146ZM195.092 18.518C195.092 17.2513 194.826 16.162 194.294 15.25C193.788 14.3127 193.104 13.6033 192.242 13.122C191.406 12.6407 190.494 12.4 189.506 12.4C188.544 12.4 187.632 12.6533 186.77 13.16C185.934 13.6413 185.25 14.3507 184.718 15.288C184.212 16.2253 183.958 17.3273 183.958 18.594C183.958 19.8607 184.212 20.9627 184.718 21.9C185.25 22.8373 185.934 23.5593 186.77 24.066C187.632 24.5473 188.544 24.788 189.506 24.788C190.494 24.788 191.406 24.5347 192.242 24.028C193.104 23.5213 193.788 22.7993 194.294 21.862C194.826 20.9247 195.092 19.81 195.092 18.518Z"/>
</mask>
<path d="M6.46404 2.596V29.12H1.14404V2.596H6.46404Z" fill="#0F0A3C"/>
<path d="M21.4862 7.764C23.9942 7.764 26.0209 8.562 27.5662 10.158C29.1115 11.7287 29.8842 13.9327 29.8842 16.77V29.12H24.5642V17.492C24.5642 15.82 24.1462 14.5407 23.3102 13.654C22.4742 12.742 21.3342 12.286 19.8902 12.286C18.4209 12.286 17.2556 12.742 16.3942 13.654C15.5582 14.5407 15.1402 15.82 15.1402 17.492V29.12H9.82022V8.068H15.1402V10.69C15.8495 9.778 16.7489 9.06867 17.8382 8.562C18.9529 8.03 20.1689 7.764 21.4862 7.764Z" fill="#0F0A3C"/>
<path d="M39.2373 12.438V22.622C39.2373 23.3313 39.4019 23.8507 39.7313 24.18C40.0859 24.484 40.6686 24.636 41.4793 24.636H43.9493V29.12H40.6053C36.1213 29.12 33.8793 26.9413 33.8793 22.584V12.438H31.3713V8.068H33.8793V2.862H39.2373V8.068H43.9493V12.438H39.2373Z" fill="#0F0A3C"/>
<path d="M65.4457 18.138C65.4457 18.898 65.395 19.582 65.2937 20.19H49.9037C50.0303 21.71 50.5623 22.9007 51.4997 23.762C52.437 24.6233 53.5897 25.054 54.9577 25.054C56.9337 25.054 58.3397 24.2053 59.1757 22.508H64.9137C64.3057 24.5347 63.1404 26.2067 61.4177 27.524C59.695 28.816 57.5797 29.462 55.0717 29.462C53.045 29.462 51.221 29.0187 49.5997 28.132C48.0037 27.22 46.7497 25.9407 45.8377 24.294C44.951 22.6473 44.5077 20.7473 44.5077 18.594C44.5077 16.4153 44.951 14.5027 45.8377 12.856C46.7243 11.2093 47.9657 9.94267 49.5617 9.056C51.1577 8.16933 52.9943 7.726 55.0717 7.726C57.073 7.726 58.859 8.15667 60.4297 9.018C62.0257 9.87933 63.2544 11.108 64.1157 12.704C65.0024 14.2747 65.4457 16.086 65.4457 18.138ZM59.9357 16.618C59.9103 15.25 59.4163 14.1607 58.4537 13.35C57.491 12.514 56.313 12.096 54.9197 12.096C53.6023 12.096 52.4877 12.5013 51.5757 13.312C50.689 14.0973 50.1443 15.1993 49.9417 16.618H59.9357Z" fill="#0F0A3C"/>
<path d="M72.7488 11.336C73.4328 10.2213 74.3195 9.34733 75.4088 8.714C76.5235 8.08067 77.7901 7.764 79.2088 7.764V13.35H77.8028C76.1308 13.35 74.8641 13.7427 74.0028 14.528C73.1668 15.3133 72.7488 16.6813 72.7488 18.632V29.12H67.4288V8.068H72.7488V11.336Z" fill="#0F0A3C"/>
<path d="M92.5581 7.764C95.0661 7.764 97.0928 8.562 98.6381 10.158C100.183 11.7287 100.956 13.9327 100.956 16.77V29.12H95.6361V17.492C95.6361 15.82 95.2181 14.5407 94.3821 13.654C93.5461 12.742 92.4061 12.286 90.9621 12.286C89.4928 12.286 88.3274 12.742 87.4661 13.654C86.6301 14.5407 86.2121 15.82 86.2121 17.492V29.12H80.8921V8.068H86.2121V10.69C86.9214 9.778 87.8208 9.06867 88.9101 8.562C90.0248 8.03 91.2408 7.764 92.5581 7.764Z" fill="#0F0A3C"/>
<path d="M112.171 29.462C110.448 29.462 108.903 29.158 107.535 28.55C106.167 27.9167 105.078 27.068 104.267 26.004C103.482 24.94 103.051 23.762 102.975 22.47H108.333C108.434 23.2807 108.827 23.952 109.511 24.484C110.22 25.016 111.094 25.282 112.133 25.282C113.146 25.282 113.932 25.0793 114.489 24.674C115.072 24.2687 115.363 23.7493 115.363 23.116C115.363 22.432 115.008 21.9253 114.299 21.596C113.615 21.2413 112.513 20.8613 110.993 20.456C109.422 20.076 108.13 19.6833 107.117 19.278C106.129 18.8727 105.268 18.252 104.533 17.416C103.824 16.58 103.469 15.4527 103.469 14.034C103.469 12.8687 103.798 11.8047 104.457 10.842C105.141 9.87933 106.104 9.11933 107.345 8.562C108.612 8.00467 110.094 7.726 111.791 7.726C114.299 7.726 116.3 8.35933 117.795 9.626C119.29 10.8673 120.113 12.552 120.265 14.68H115.173C115.097 13.844 114.742 13.1853 114.109 12.704C113.501 12.1973 112.678 11.944 111.639 11.944C110.676 11.944 109.929 12.1213 109.397 12.476C108.89 12.8307 108.637 13.3247 108.637 13.958C108.637 14.6673 108.992 15.212 109.701 15.592C110.41 15.9467 111.512 16.314 113.007 16.694C114.527 17.074 115.781 17.4667 116.769 17.872C117.757 18.2773 118.606 18.9107 119.315 19.772C120.05 20.608 120.43 21.7227 120.455 23.116C120.455 24.332 120.113 25.4213 119.429 26.384C118.77 27.3467 117.808 28.1067 116.541 28.664C115.3 29.196 113.843 29.462 112.171 29.462Z" fill="#0F0A3C"/>
<path d="M152.079 2.596V29.12H146.759V17.834H135.397V29.12H130.077V2.596H135.397V13.502H146.759V2.596H152.079Z" fill="#0F0A3C"/>
<path d="M175.289 8.068V29.12H169.931V26.46C169.247 27.372 168.348 28.094 167.233 28.626C166.144 29.1327 164.953 29.386 163.661 29.386C162.014 29.386 160.558 29.044 159.291 28.36C158.024 27.6507 157.024 26.6247 156.289 25.282C155.58 23.914 155.225 22.2927 155.225 20.418V8.068H160.545V19.658C160.545 21.33 160.963 22.622 161.799 23.534C162.635 24.4207 163.775 24.864 165.219 24.864C166.688 24.864 167.841 24.4207 168.677 23.534C169.513 22.622 169.931 21.33 169.931 19.658V8.068H175.289Z" fill="#0F0A3C"/>
<path d="M183.958 11.146C184.642 10.1327 185.58 9.30933 186.77 8.676C187.986 8.04267 189.367 7.726 190.912 7.726C192.711 7.726 194.332 8.16933 195.776 9.056C197.246 9.94267 198.398 11.2093 199.234 12.856C200.096 14.4773 200.526 16.3647 200.526 18.518C200.526 20.6713 200.096 22.584 199.234 24.256C198.398 25.9027 197.246 27.182 195.776 28.094C194.332 29.006 192.711 29.462 190.912 29.462C189.342 29.462 187.961 29.158 186.77 28.55C185.605 27.9167 184.668 27.106 183.958 26.118V29.12H178.638V1H183.958V11.146ZM195.092 18.518C195.092 17.2513 194.826 16.162 194.294 15.25C193.788 14.3127 193.104 13.6033 192.242 13.122C191.406 12.6407 190.494 12.4 189.506 12.4C188.544 12.4 187.632 12.6533 186.77 13.16C185.934 13.6413 185.25 14.3507 184.718 15.288C184.212 16.2253 183.958 17.3273 183.958 18.594C183.958 19.8607 184.212 20.9627 184.718 21.9C185.25 22.8373 185.934 23.5593 186.77 24.066C187.632 24.5473 188.544 24.788 189.506 24.788C190.494 24.788 191.406 24.5347 192.242 24.028C193.104 23.5213 193.788 22.7993 194.294 21.862C194.826 20.9247 195.092 19.81 195.092 18.518Z" fill="#0F0A3C"/>
<path d="M6.46404 2.596V29.12H1.14404V2.596H6.46404Z" stroke="#0F0A3C" stroke-width="0.5" mask="url(#path-1-outside-1_2_939)"/>
<path d="M21.4862 7.764C23.9942 7.764 26.0209 8.562 27.5662 10.158C29.1115 11.7287 29.8842 13.9327 29.8842 16.77V29.12H24.5642V17.492C24.5642 15.82 24.1462 14.5407 23.3102 13.654C22.4742 12.742 21.3342 12.286 19.8902 12.286C18.4209 12.286 17.2556 12.742 16.3942 13.654C15.5582 14.5407 15.1402 15.82 15.1402 17.492V29.12H9.82022V8.068H15.1402V10.69C15.8495 9.778 16.7489 9.06867 17.8382 8.562C18.9529 8.03 20.1689 7.764 21.4862 7.764Z" stroke="#0F0A3C" stroke-width="0.5" mask="url(#path-1-outside-1_2_939)"/>
<path d="M39.2373 12.438V22.622C39.2373 23.3313 39.4019 23.8507 39.7313 24.18C40.0859 24.484 40.6686 24.636 41.4793 24.636H43.9493V29.12H40.6053C36.1213 29.12 33.8793 26.9413 33.8793 22.584V12.438H31.3713V8.068H33.8793V2.862H39.2373V8.068H43.9493V12.438H39.2373Z" stroke="#0F0A3C" stroke-width="0.5" mask="url(#path-1-outside-1_2_939)"/>
<path d="M65.4457 18.138C65.4457 18.898 65.395 19.582 65.2937 20.19H49.9037C50.0303 21.71 50.5623 22.9007 51.4997 23.762C52.437 24.6233 53.5897 25.054 54.9577 25.054C56.9337 25.054 58.3397 24.2053 59.1757 22.508H64.9137C64.3057 24.5347 63.1404 26.2067 61.4177 27.524C59.695 28.816 57.5797 29.462 55.0717 29.462C53.045 29.462 51.221 29.0187 49.5997 28.132C48.0037 27.22 46.7497 25.9407 45.8377 24.294C44.951 22.6473 44.5077 20.7473 44.5077 18.594C44.5077 16.4153 44.951 14.5027 45.8377 12.856C46.7243 11.2093 47.9657 9.94267 49.5617 9.056C51.1577 8.16933 52.9943 7.726 55.0717 7.726C57.073 7.726 58.859 8.15667 60.4297 9.018C62.0257 9.87933 63.2544 11.108 64.1157 12.704C65.0024 14.2747 65.4457 16.086 65.4457 18.138ZM59.9357 16.618C59.9103 15.25 59.4163 14.1607 58.4537 13.35C57.491 12.514 56.313 12.096 54.9197 12.096C53.6023 12.096 52.4877 12.5013 51.5757 13.312C50.689 14.0973 50.1443 15.1993 49.9417 16.618H59.9357Z" stroke="#0F0A3C" stroke-width="0.5" mask="url(#path-1-outside-1_2_939)"/>
<path d="M72.7488 11.336C73.4328 10.2213 74.3195 9.34733 75.4088 8.714C76.5235 8.08067 77.7901 7.764 79.2088 7.764V13.35H77.8028C76.1308 13.35 74.8641 13.7427 74.0028 14.528C73.1668 15.3133 72.7488 16.6813 72.7488 18.632V29.12H67.4288V8.068H72.7488V11.336Z" stroke="#0F0A3C" stroke-width="0.5" mask="url(#path-1-outside-1_2_939)"/>
<path d="M92.5581 7.764C95.0661 7.764 97.0928 8.562 98.6381 10.158C100.183 11.7287 100.956 13.9327 100.956 16.77V29.12H95.6361V17.492C95.6361 15.82 95.2181 14.5407 94.3821 13.654C93.5461 12.742 92.4061 12.286 90.9621 12.286C89.4928 12.286 88.3274 12.742 87.4661 13.654C86.6301 14.5407 86.2121 15.82 86.2121 17.492V29.12H80.8921V8.068H86.2121V10.69C86.9214 9.778 87.8208 9.06867 88.9101 8.562C90.0248 8.03 91.2408 7.764 92.5581 7.764Z" stroke="#0F0A3C" stroke-width="0.5" mask="url(#path-1-outside-1_2_939)"/>
<path d="M112.171 29.462C110.448 29.462 108.903 29.158 107.535 28.55C106.167 27.9167 105.078 27.068 104.267 26.004C103.482 24.94 103.051 23.762 102.975 22.47H108.333C108.434 23.2807 108.827 23.952 109.511 24.484C110.22 25.016 111.094 25.282 112.133 25.282C113.146 25.282 113.932 25.0793 114.489 24.674C115.072 24.2687 115.363 23.7493 115.363 23.116C115.363 22.432 115.008 21.9253 114.299 21.596C113.615 21.2413 112.513 20.8613 110.993 20.456C109.422 20.076 108.13 19.6833 107.117 19.278C106.129 18.8727 105.268 18.252 104.533 17.416C103.824 16.58 103.469 15.4527 103.469 14.034C103.469 12.8687 103.798 11.8047 104.457 10.842C105.141 9.87933 106.104 9.11933 107.345 8.562C108.612 8.00467 110.094 7.726 111.791 7.726C114.299 7.726 116.3 8.35933 117.795 9.626C119.29 10.8673 120.113 12.552 120.265 14.68H115.173C115.097 13.844 114.742 13.1853 114.109 12.704C113.501 12.1973 112.678 11.944 111.639 11.944C110.676 11.944 109.929 12.1213 109.397 12.476C108.89 12.8307 108.637 13.3247 108.637 13.958C108.637 14.6673 108.992 15.212 109.701 15.592C110.41 15.9467 111.512 16.314 113.007 16.694C114.527 17.074 115.781 17.4667 116.769 17.872C117.757 18.2773 118.606 18.9107 119.315 19.772C120.05 20.608 120.43 21.7227 120.455 23.116C120.455 24.332 120.113 25.4213 119.429 26.384C118.77 27.3467 117.808 28.1067 116.541 28.664C115.3 29.196 113.843 29.462 112.171 29.462Z" stroke="#0F0A3C" stroke-width="0.5" mask="url(#path-1-outside-1_2_939)"/>
<path d="M152.079 2.596V29.12H146.759V17.834H135.397V29.12H130.077V2.596H135.397V13.502H146.759V2.596H152.079Z" stroke="#0F0A3C" stroke-width="0.5" mask="url(#path-1-outside-1_2_939)"/>
<path d="M175.289 8.068V29.12H169.931V26.46C169.247 27.372 168.348 28.094 167.233 28.626C166.144 29.1327 164.953 29.386 163.661 29.386C162.014 29.386 160.558 29.044 159.291 28.36C158.024 27.6507 157.024 26.6247 156.289 25.282C155.58 23.914 155.225 22.2927 155.225 20.418V8.068H160.545V19.658C160.545 21.33 160.963 22.622 161.799 23.534C162.635 24.4207 163.775 24.864 165.219 24.864C166.688 24.864 167.841 24.4207 168.677 23.534C169.513 22.622 169.931 21.33 169.931 19.658V8.068H175.289Z" stroke="#0F0A3C" stroke-width="0.5" mask="url(#path-1-outside-1_2_939)"/>
<path d="M183.958 11.146C184.642 10.1327 185.58 9.30933 186.77 8.676C187.986 8.04267 189.367 7.726 190.912 7.726C192.711 7.726 194.332 8.16933 195.776 9.056C197.246 9.94267 198.398 11.2093 199.234 12.856C200.096 14.4773 200.526 16.3647 200.526 18.518C200.526 20.6713 200.096 22.584 199.234 24.256C198.398 25.9027 197.246 27.182 195.776 28.094C194.332 29.006 192.711 29.462 190.912 29.462C189.342 29.462 187.961 29.158 186.77 28.55C185.605 27.9167 184.668 27.106 183.958 26.118V29.12H178.638V1H183.958V11.146ZM195.092 18.518C195.092 17.2513 194.826 16.162 194.294 15.25C193.788 14.3127 193.104 13.6033 192.242 13.122C191.406 12.6407 190.494 12.4 189.506 12.4C188.544 12.4 187.632 12.6533 186.77 13.16C185.934 13.6413 185.25 14.3507 184.718 15.288C184.212 16.2253 183.958 17.3273 183.958 18.594C183.958 19.8607 184.212 20.9627 184.718 21.9C185.25 22.8373 185.934 23.5593 186.77 24.066C187.632 24.5473 188.544 24.788 189.506 24.788C190.494 24.788 191.406 24.5347 192.242 24.028C193.104 23.5213 193.788 22.7993 194.294 21.862C194.826 20.9247 195.092 19.81 195.092 18.518Z" stroke="#0F0A3C" stroke-width="0.5" mask="url(#path-1-outside-1_2_939)"/>
</svg>
