<svg width="528" height="492" viewBox="0 0 528 492" fill="none" xmlns="http://www.w3.org/2000/svg">
<mask id="mask0_2_140" style="mask-type:alpha" maskUnits="userSpaceOnUse" x="34" y="40" width="525" height="561">
<path fill-rule="evenodd" clip-rule="evenodd" d="M37.0878 320.339C37.2126 356.418 74.4333 381.5 86.2077 415.641C105.912 472.782 73.9985 556.018 129.441 588.145C180.031 617.459 253.428 574.639 303.161 541.354C345.793 512.823 357.449 461.815 381.726 419.297C396.821 392.858 397.731 361.253 419.013 338.453C455.234 299.649 526.769 290.108 546.441 242.832C565.814 196.269 556.247 134.656 517.907 100.774C478.91 66.314 411.717 85.9289 357.759 76.0989C313.383 68.0151 269.93 30.4911 228.084 47.9763C183.513 66.5997 183.526 125.021 154.53 161.017C134.827 185.476 104.097 199.755 85.5456 224.923C63.6478 254.629 36.9653 285.165 37.0878 320.339Z" fill="#C4C4C4" stroke="white" stroke-width="5.11994"/>
</mask>
<g mask="url(#mask0_2_140)">
<path d="M146.846 368.946C146.972 405.027 184.186 430.115 195.96 464.262C215.664 521.41 183.761 604.656 239.193 636.79C289.772 666.11 363.15 623.29 412.869 590.003C455.488 561.47 467.139 510.455 491.409 467.934C506.499 441.493 507.408 409.884 528.682 387.082C564.892 348.275 636.412 338.736 656.074 291.456C675.44 244.888 665.874 183.267 627.539 149.378C588.551 114.913 521.375 134.525 467.429 124.692C423.063 116.604 379.616 79.0719 337.783 96.5567C293.223 115.18 293.24 173.61 264.252 209.608C244.555 234.069 213.833 248.348 195.287 273.519C173.397 303.227 146.721 333.766 146.846 368.944L146.846 368.946Z" stroke="white" stroke-width="5.11994"/>
<path d="M234.043 394.362C234.154 425.774 266.547 447.612 276.795 477.339C293.947 527.09 266.178 599.556 314.43 627.529C358.458 653.055 422.332 615.779 465.611 586.803C502.711 561.964 512.853 517.555 533.977 480.538C547.113 457.521 547.903 430.005 566.422 410.156C597.943 376.373 660.199 368.069 677.313 326.91C694.171 286.371 685.843 232.728 652.473 203.227C618.534 173.223 560.059 190.297 513.101 181.736C474.481 174.695 436.662 142.022 400.246 157.242C361.459 173.453 361.473 224.318 336.241 255.656C319.095 276.95 292.353 289.38 276.209 311.29C257.153 337.153 233.934 363.738 234.043 394.362Z" stroke="white" stroke-width="5.11994"/>
<path d="M311.049 433.893C311.139 461.802 339.98 481.196 349.097 507.604C364.355 551.802 339.602 616.198 382.564 641.038C421.765 663.701 478.66 630.562 517.21 604.803C550.257 582.721 559.303 543.261 578.126 510.365C589.832 489.91 590.544 465.462 607.043 447.819C635.124 417.793 690.566 410.397 705.822 373.821C720.847 337.798 713.448 290.139 683.74 263.938C653.525 237.289 601.446 252.477 559.63 244.886C525.24 238.643 491.571 209.625 459.136 223.16C424.588 237.577 424.585 282.77 402.106 310.621C386.83 329.546 363.01 340.599 348.626 360.071C331.649 383.057 310.962 406.683 311.049 433.893Z" stroke="white" stroke-width="5.11994"/>
</g>
</svg>
