<svg width="33" height="32" viewBox="0 0 33 32" fill="none" xmlns="http://www.w3.org/2000/svg">
<g clip-path="url(#clip0_71_309)">
<path d="M24.11 21.3335H23.3367L22.2567 20.2535C23.4549 18.6368 24.1044 16.6791 24.11 14.6668C24.11 9.50683 19.9367 5.3335 14.7767 5.3335C12.7767 5.3335 10.7767 6.00016 9.16336 7.20016C5.04336 10.2935 4.20336 16.1468 7.29669 20.2668C10.39 24.3868 16.2434 25.2268 20.3634 22.1335L21.4434 23.2135V24.0002L28.11 30.6668L30.7767 28.0002L24.11 21.3335ZM14.7767 21.3335C11.0967 21.3335 8.11003 18.3468 8.11003 14.6668C8.11003 10.9868 11.0967 8.00016 14.7767 8.00016C18.4567 8.00016 21.4434 10.9868 21.4434 14.6668C21.4434 18.3468 18.4567 21.3335 14.7767 21.3335ZM4.11003 8.00016L1.44336 10.6668V1.3335H10.7767L8.11003 4.00016H4.11003V8.00016ZM28.11 1.3335V10.6668L25.4434 8.00016V4.00016H21.4434L18.7767 1.3335H28.11ZM8.11003 25.3335L10.7767 28.0002H1.44336V18.6668L4.11003 21.3335V25.3335H8.11003Z" fill="#0E0939"/>
</g>
<defs>
<clipPath id="clip0_71_309">
<rect width="32" height="32" fill="white" transform="translate(0.110107)"/>
</clipPath>
</defs>
</svg>
