<svg width="33" height="32" viewBox="0 0 33 32" fill="none" xmlns="http://www.w3.org/2000/svg">
<g clip-path="url(#clip0_71_301)">
<path d="M14.8167 11.5867C14.548 11.5867 14.2902 11.6934 14.1002 11.8835C13.9101 12.0735 13.8034 12.3312 13.8034 12.6V27.8667C13.8034 28.4267 14.2567 28.88 14.8167 28.88C15.0701 28.88 15.2834 28.8 15.4567 28.6667L18.0034 26.6L20.2167 31.4267C20.3901 31.7867 20.7501 32 21.1367 32C21.2834 32 21.4301 32 21.5767 31.8933L25.2567 30.1867C25.7634 29.9467 26.0034 29.3333 25.7367 28.84L23.5101 24L26.7234 23.4C26.9441 23.3426 27.1434 23.2222 27.2967 23.0533C27.6567 22.6267 27.6034 22 27.1367 21.6133L15.4834 11.8133L15.4701 11.8267C15.2877 11.6716 15.0561 11.5866 14.8167 11.5867ZM20.4701 13.3333V10.6667H27.1367V13.3333H20.4701ZM18.9101 6.34667L22.6834 2.57333L24.5634 4.45333L20.7901 8.22667L18.9101 6.34667ZM13.8034 0H16.4701V6.66667H13.8034V0ZM5.71005 19.5467L9.48339 15.7733L11.3634 17.6533L7.59005 21.4267L5.71005 19.5467ZM5.71005 4.45333L7.59005 2.57333L11.3634 6.34667L9.48339 8.22667L5.71005 4.45333ZM9.80339 13.3333H3.13672V10.6667H9.80339V13.3333Z" fill="#0E0939"/>
</g>
<defs>
<clipPath id="clip0_71_301">
<rect width="32" height="32" fill="white" transform="translate(0.469971)"/>
</clipPath>
</defs>
</svg>
