<svg width="33" height="32" viewBox="0 0 33 32" fill="none" xmlns="http://www.w3.org/2000/svg">
<g clip-path="url(#clip0_71_317)">
<path d="M9.62672 14.3867C11.5467 18.16 14.64 21.2533 18.4134 23.1733L21.3467 20.24C21.72 19.8667 22.24 19.76 22.7067 19.9067C24.2001 20.4 25.8 20.6667 27.4667 20.6667C27.8203 20.6667 28.1595 20.8071 28.4095 21.0572C28.6596 21.3072 28.8 21.6464 28.8 22V26.6667C28.8 27.0203 28.6596 27.3594 28.4095 27.6095C28.1595 27.8595 27.8203 28 27.4667 28C21.4551 28 15.6898 25.6119 11.439 21.3611C7.18814 17.1103 4.80005 11.3449 4.80005 5.33333C4.80005 4.97971 4.94052 4.64057 5.19057 4.39052C5.44062 4.14048 5.77976 4 6.13338 4H10.8C11.1537 4 11.4928 4.14048 11.7429 4.39052C11.9929 4.64057 12.1334 4.97971 12.1334 5.33333C12.1334 7 12.4 8.6 12.8934 10.0933C13.04 10.56 12.9334 11.08 12.56 11.4533L9.62672 14.3867Z" fill="#0E0939"/>
</g>
<defs>
<clipPath id="clip0_71_317">
<rect width="32" height="32" fill="white" transform="translate(0.800049)"/>
</clipPath>
</defs>
</svg>
