<svg width="33" height="32" viewBox="0 0 33 32" fill="none" xmlns="http://www.w3.org/2000/svg">
<g clip-path="url(#clip0_71_325)">
<path d="M24.5831 22.7163L17.6616 19.7194L19.1334 23.4388C15.0296 25.0626 10.3749 23.0472 8.75106 18.9435C8.26761 17.7337 8.09377 16.4225 8.24529 15.1286L5.71894 14.0347C5.33894 16.0106 5.53061 18.0539 6.27145 19.9246C8.43981 25.4045 14.6346 28.0868 20.1145 25.9184L21.5863 29.6378L24.5831 22.7163ZM13.2464 8.56115C17.3501 6.93733 22.0049 8.95274 23.6287 13.0565C24.1242 14.3087 24.2852 15.6215 24.1345 16.8713L26.6608 17.9652C27.0408 15.9893 26.8491 13.9461 26.1083 12.0753C23.9399 6.5954 17.7452 3.91318 12.2652 6.08155L10.7935 2.36214L7.7966 9.28367L14.7181 12.2806L13.2464 8.56115Z" fill="#0E0939"/>
</g>
<defs>
<clipPath id="clip0_71_325">
<rect width="32" height="32" fill="white" transform="translate(0.189941)"/>
</clipPath>
</defs>
</svg>
