<svg width="284" height="169" viewBox="0 0 284 169" fill="none" xmlns="http://www.w3.org/2000/svg">
<path d="M-29.588 148.995C-29.588 148.995 24.9107 182.373 66.4775 159.805C98.503 142.415 117.077 102.499 95.953 78.7358C89.5047 71.4821 71.0571 61.9411 57.9623 70.6984C45.7023 78.899 49.7134 93.189 53.3889 101.792C68.7266 137.689 121.568 136.169 153.783 116.583C181.485 99.7408 198.636 65.4317 176.955 38.6669C169.919 29.9817 159.756 27.049 148.537 31.8136C137.601 36.4585 136.987 47.1296 140.694 58.571C153.73 98.7927 224.958 95.8976 251.456 71.2549C272.255 51.913 272.239 3.21028 272.239 3.21028M272.239 3.21028L257.891 21.7664M272.239 3.21028L282.717 27.1126" stroke="white" stroke-width="2.49942" stroke-linecap="round"/>
</svg>
